<svg width="1660" height="660" viewBox="0 0 1660 660" fill="none" xmlns="http://www.w3.org/2000/svg">
<path fill-rule="evenodd" clip-rule="evenodd" d="M709.489 391.081C685.802 391.081 666.532 410.35 666.532 434.04C666.532 457.728 685.802 477 709.489 477C733.176 477 752.443 457.728 752.443 434.04C752.443 410.35 733.176 391.081 709.489 391.081" fill="#FCB716"/>
<path fill-rule="evenodd" clip-rule="evenodd" d="M589.45 391.081C565.763 391.081 546.496 410.35 546.496 434.04C546.496 457.728 565.763 477 589.45 477C613.134 477 632.407 457.728 632.407 434.04C632.407 410.35 613.134 391.081 589.45 391.081" fill="#EE363F"/>
<path fill-rule="evenodd" clip-rule="evenodd" d="M829.528 391.081C805.839 391.081 786.571 410.35 786.571 434.04C786.571 457.728 805.839 477 829.528 477C853.213 477 872.483 457.728 872.483 434.04C872.483 410.35 853.213 391.081 829.528 391.081" fill="#07AF56"/>
<path fill-rule="evenodd" clip-rule="evenodd" d="M1069.6 391.081C1045.91 391.081 1026.64 410.35 1026.64 434.04C1026.64 457.728 1045.91 477 1069.6 477C1093.29 477 1112.55 457.728 1112.55 434.04C1112.55 410.35 1093.29 391.081 1069.6 391.081" fill="#04A9DF"/>
<path fill-rule="evenodd" clip-rule="evenodd" d="M949.565 391.083C925.878 391.083 906.605 410.353 906.605 434.04C906.605 457.73 925.875 476.997 949.562 476.997C973.249 476.997 992.516 457.73 992.516 434.04C992.516 410.353 973.252 391.083 949.565 391.083" fill="#A1479A"/>
<path fill-rule="evenodd" clip-rule="evenodd" d="M540 269.352C540 241.495 562.357 220.465 590.017 220.465C617.865 220.465 640.032 241.308 640.032 269.162V311.984C640.032 316.34 637.003 319.373 632.454 319.373C627.718 319.373 624.876 316.34 624.876 311.984V299.478H624.118C618.245 309.519 606.498 318.235 589.067 318.235C562.167 318.235 540 297.393 540 269.352M625.256 269.352C625.256 249.267 610.097 234.109 590.017 234.109C569.932 234.109 554.776 249.267 554.776 269.352C554.776 289.434 569.932 304.595 590.017 304.595C610.097 304.595 625.256 289.434 625.256 269.352" fill="white"/>
<path fill-rule="evenodd" clip-rule="evenodd" d="M679.067 349.881C675.088 347.986 673.191 344.574 674.708 340.597C676.225 336.424 680.015 334.723 683.991 336.617C690.814 339.837 699.337 342.111 708.429 342.111C730.979 342.111 744.618 328.658 744.618 305.731V299.477H743.858C737.984 309.521 726.243 318.234 708.809 318.234C681.906 318.234 659.739 297.392 659.739 269.351C659.739 241.497 682.096 220.464 709.759 220.464C737.61 220.464 759.777 241.309 759.777 269.161V304.784C759.777 335.48 740.069 356.132 707.862 356.132C698.012 356.132 688.16 354.237 679.067 349.881M744.995 269.351C744.995 249.266 729.839 234.105 709.759 234.105C689.677 234.105 674.521 249.266 674.521 269.351C674.521 289.436 689.677 304.594 709.759 304.594C729.839 304.594 744.995 289.436 744.995 269.351" fill="white"/>
<path fill-rule="evenodd" clip-rule="evenodd" d="M779.481 269.352C779.481 241.495 801.651 220.465 829.501 220.465C857.349 220.465 879.516 241.495 879.516 269.352C879.516 297.203 857.349 318.235 829.501 318.235C801.651 318.235 779.481 297.203 779.481 269.352M864.74 269.352C864.74 249.267 849.581 234.109 829.501 234.109C809.416 234.109 794.26 249.267 794.26 269.352C794.26 289.434 809.416 304.595 829.501 304.595C849.581 304.595 864.74 289.434 864.74 269.352" fill="white"/>
<path fill-rule="evenodd" clip-rule="evenodd" d="M899.225 269.352C899.225 241.495 921.199 220.465 948.292 220.465C965.723 220.465 977.47 229.182 983.343 239.223H984.101V189.389C984.101 185.032 987.132 182 991.679 182C996.418 182 999.257 185.032 999.257 189.389V269.539C999.257 297.393 977.09 318.235 949.242 318.235C921.582 318.235 899.225 297.203 899.225 269.352M984.481 269.352C984.481 249.267 969.322 234.109 949.242 234.109C929.157 234.109 914.001 249.267 914.001 269.352C914.001 289.434 929.157 304.595 949.242 304.595C969.322 304.595 984.481 289.434 984.481 269.352" fill="white"/>
<path fill-rule="evenodd" clip-rule="evenodd" d="M1018.97 269.352C1018.97 241.495 1041.32 220.465 1068.98 220.465C1096.83 220.465 1119 241.308 1119 269.162V311.984C1119 316.34 1115.97 319.373 1111.42 319.373C1106.68 319.373 1103.84 316.34 1103.84 311.984V299.478H1103.08C1097.21 309.519 1085.47 318.235 1068.04 318.235C1041.13 318.235 1018.97 297.393 1018.97 269.352M1104.22 269.352C1104.22 249.267 1089.07 234.109 1068.98 234.109C1048.9 234.109 1033.74 249.267 1033.74 269.352C1033.74 289.434 1048.9 304.595 1068.98 304.595C1089.07 304.595 1104.22 289.434 1104.22 269.352" fill="white"/>
</svg>
